<?xml version="1.0" encoding="UTF-8"?>
<svg id="_Слой_1" data-name="Слой 1" xmlns="http://www.w3.org/2000/svg" viewBox="0 0 1000 1000">
  <rect width="1000" height="1000" fill="#a91a18"/>
  <g>
    <g>
      <path d="m420.63,815.34c-3.64-4.72-10.96-4.66-12.93,1.69-6.32,20.39-2.35,43.82-1.11,64.91,1.45,24.64,3.06,49.27,4.13,73.93-13.06,3.27-26.45,7.93-36.63,15.64-3.08,2.33-4.53,8.2,0,10.19,18.02,7.9,40.17,5.34,59.01,1.6,9.38-1.86,12.44-9.54,11.05-16.78,1.35-2.45,2.15-5.39,1.99-8.96-1.99-42.14,1.47-107.27-25.52-142.23Z"/>
      <path d="m640.02,956.92c-5.94-2.01-11.92-3.56-17.61-6.22-5.09-2.38-10.35-3.28-15.71-3.86.87-23.38-2.46-47.94-3.88-70.91-1.26-20.36.84-40.5-12.24-56.98-2.37-2.99-8.35-2.99-10.72,0-13.12,16.55-10.88,36.53-11.59,56.98-.98,28.13-1.49,61.12,8.42,87.76.5,1.35,1.2,2.71,2.04,4,1.38,9.31,9.28,15.08,18.58,15.98,15.48,1.51,28.21-3.24,42.71-8.1,9.22-3.09,9.19-15.54,0-18.65Z"/>
    </g>
    <path d="m847.66,22.66c-24.58-15.37-48.62,33.72-53.56,47.81-43.84,124.97-122.33,226.37-154.41,259.32-24.95,25.64,116.86,145.96,146.84,83.15,22.84-47.85,78.72-145.64,91.51-300.38,2.59-31.33-1-71.55-30.38-89.91Z"/>
    <path d="m347.45,344.36c-78.63-66.5-139.56-234.61-170.85-279.44-12.06-17.29-70.77-60.18-77.42,63.19-5.04,93.36,19.34,182.8,63.33,265.16,9.86,18.47,23.36,39.18,41.53,50.13,36.82,22.19,170.33-76.27,143.41-99.03Z"/>
    <path d="m853.23,448.62c-52.49-95.3-166.32-129.18-266.71-142.35-116.06-15.22-247.02-2.58-348.35,59.79-28.03,17.26-52.71,38.42-72.69,62.43-3.59,3.93-7.12,7.94-10.51,12.12-48.03,59.21-64.7,138.15-39.67,210.43,13.64,39.38,38.81,73.2,69.53,101.38-1.94,12.19-3.28,25.19,2.18,36.23,1.28,2.59,5.44,6.23,8.75,6.23,6.51,0,12.76-14.57,14.11-.12.52,5.51,1.73,26.33,12.08,24.6,4.72-.79,6.25-5.16,8.42-9.05,3.05-5.5,1.17-5.18,3.66.12,1.88,4.02,3.84,8,5.94,11.92,2.15,4.03,9.05,16.34,15.76,12.63,10.14-5.6,6.37-20,3.85-29.55,3.12,1.72,6.24,3.43,9.37,5.05,129.47,67.23,309.16,55.72,439.5-2.56,1.69-.75,3.33-1.6,5-2.39-.06.46-.13.87-.18,1.35-.74,6.47-4.44,30.13,8.83,28.19,10.81-1.58,12.93-20.55,15.87-28.57,5.35-14.57,7.51,2.66,8.75,8.44,1.06,4.86,6.18,6.36,10.46,5.18,5.34-1.47,7.03-10.34,8.3-14.65,1.32-4.43,2.37-8.99,3.5-13.47.41-1.77.83-3.54,1.26-5.3.18-.73,7.63-20.28,11.4-7.26,3.69,12.73,13.17,8.2,19.6-1.54,8.37-12.68,7.33-29.52,8.16-45.08,68.19-77.48,96.63-188.33,43.84-284.19Z" fill="#fff"/>
    <path d="m174.19,354.28c16.5-11.87,31.93-23.81,50.05-33.23,17.61-9.15,36.74-14.72,54.3-24.03,1.2-.64.31-2.25-.87-2.05-37.18,6.09-82.54,26.47-104.64,58.16-.47.68.48,1.64,1.16,1.15h0Z" fill="#fff"/>
    <path d="m165.11,289.46c11.1-6.36,21.94-12.98,33.52-18.43,13.66-6.42,27.81-10.51,40.46-18.77,1-.65.71-2.51-.65-2.41-26.36,1.93-57.79,17.52-74.14,38.55-.44.58.11,1.47.81,1.06h0Z" fill="#fff"/>
    <path d="m154.53,228.71c9.03-4.51,17.5-9.59,26.94-13.3,9.15-3.6,18.23-5.48,26.94-10.1.97-.52.41-1.79-.51-1.88-18.8-2-43.34,8.52-54.82,23.83-.7.93.6,1.89,1.46,1.46h0Z" fill="#fff"/>
    <path d="m143.64,172.81c5.59-3.48,11.38-6.62,17.28-9.54,6.18-3.05,13.79-4.26,18.03-10.01.94-1.27-.39-2.63-1.6-2.79-6.9-.89-13.9,3.93-19.83,6.99-6.28,3.25-12.17,7.55-15.04,14.2-.3.71.36,1.64,1.16,1.15h0Z" fill="#fff"/>
    <path d="m143.55,131.34c7.16-4.5,16.23-4.74,23.64-8.5.78-.39.83-1.76,0-2.13-4.65-2.08-9.05-1.17-13.69.5-5.09,1.83-7.85,4.97-10.87,9.21-.4.56.37,1.27.92.92h0Z" fill="#fff"/>
    <path d="m701.86,298.34c12.42,4.8,25.34,7.92,37.84,12.49,13.63,4.99,26.63,15.04,40.91,17.34,1.67.27,2.63-1.41,1.59-2.72-15.83-20.01-56.06-28.28-80.21-28.1-.6,0-.65.79-.13.99h0Z" fill="#fff"/>
    <path d="m733.98,261.42c13.55,2.01,25.55,4.73,38.32,9.71,11.93,4.65,24.32,14.72,37.5,14.04,1.54-.08,2.13-1.74,1.19-2.87-8.39-10.14-24.42-14.5-36.46-19.25-12.54-4.95-27.34-6.97-40.55-4.22-1.26.26-1.33,2.4,0,2.6h0Z" fill="#fff"/>
    <path d="m764.46,235.7c6.71,3.95,14.74,5.72,22.12,8.03,7.99,2.5,16.57,8.79,25.02,8.7.87-.01,1.42-.81,1.24-1.64-1.83-8.39-11.73-10.98-18.95-13.15-9.03-2.71-19.6-4.09-29.01-3.52-.81.05-1.18,1.13-.43,1.57h0Z" fill="#fff"/>
    <path d="m779.05,190.81c12.04,1.88,23.25,4.66,34.65,8.99,8.81,3.34,17.49,11.56,27.13,9.96,1.26-.21,1.5-1.69,1.07-2.64-3.96-9.02-17.24-12.2-25.92-15.6-11.76-4.61-24.76-5.39-36.93-2.22-.71.19-.79,1.39,0,1.52h0Z" fill="#fff"/>
    <path d="m804.22,169.2c10.78,2.06,23.59,8.4,34.65,5.82.91-.21,1.07-1.34.52-1.97-8.19-9.24-24.42-7.06-35.17-5.26-.7.12-.69,1.28,0,1.41h0Z" fill="#fff"/>
    <path d="m813.4,106.5c6.08.59,12.21,2.14,18.21,3.27,2.94.55,5.77,1.56,8.67,2.27,2.34.57,4.89-.15,7.25.13,1.05.13,1.51-1.35.83-2.01-2.57-2.48-3.83-4.57-7.17-6.01-3.03-1.31-6.46-1.79-9.7-2.3-6.56-1.03-12.34.47-18.35,2.89-.95.38-.8,1.67.24,1.76h0Z" fill="#fff"/>
    <g>
      <path d="m188.74,502.21c2.3-4.67,4.04-9.55,6.06-14.33.25-.6-.46-1.32-.97-.75-3.65,4.05-5.77,9.37-6.09,14.81-.03.52.76.74,1,.27Z"/>
      <path d="m753.71,657.05c-4.01,2.82-9.2,4.42-12.83,7.59-.2.18-.03.46.2.48,4.32.37,8.93-2.8,12.44-5.01,4.86-3.07,9.3-6.74,13.01-11.14.29-.35-.08-.93-.51-.66-4.27,2.69-8.19,5.85-12.31,8.74Z"/>
      <path d="m445.11,631.17c31.74-44.48,38.05-104.59-4.81-154.75-40.57-47.48-112.08-72.3-171.1-44.67-22.91,10.72-41.52,27.37-54.97,47.38-26.33,32.6-35.89,77.35-23.98,120.83,7.82,28.57,25.5,51.15,48.24,67.19,15.85,13.92,35.14,23.78,57.39,27.25,10.37,1.62,20.62,1.66,30.63.5,27.56-.29,53.76-9.04,76.1-23.36-50.14,48.63-113.38,37.49-170.99,10.88-.43-.2-.97.36-.54.7,53.05,42.63,120.3,39.25,173.22-1.77,16.33-12.66,30.45-30.31,40.81-50.19Zm-22.59,11.35c32.34-41.72,37.59-91.16,19.65-139.98-.11-.32.34-.45.52-.21,28.71,39.25,18,110.62-18.66,141.71-1.07.91-2.34-.44-1.5-1.51Zm-125.84-201.92c.78,0,1.23,1.23.43,1.57-16.24,6.89-33.05,12.06-46.8,23.66-15.18,12.81-26.26,28.42-32.97,47.14-.42,1.17-2.06.71-1.84-.51,6.62-35.95,43.35-71.49,81.17-71.86Zm55.51,235.35c-52.2,16.55-129.87-11.28-144.25-68.42-.2-.81.9-1.27,1.33-.56,32.45,53.25,83.09,67.4,142.71,67.44.9,0,1.05,1.28.21,1.54Zm21.18-4.16c-1.88,3.44-9.31,4.69-12.63,3.09-.84-.41-.77-1.71,0-2.13,2.1-1.18,4.66-1.13,6.96-1.84,1.99-.62,3.49-1.01,5.4-.12.37.17.44.68.27,1Z"/>
      <path d="m451.27,640.57c-7.34,14.51-15.34,28.13-26.79,39.82-12.2,12.44-27.2,19.31-42.28,27.36-.26.14-.08.52.2.46,32.42-7.23,60.48-35.86,70-67.16.2-.67-.81-1.11-1.13-.48Z"/>
      <path d="m183.49,621.17c-9.28-19.9-10.96-40.23-14.29-61.55-.08-.48-.72-.29-.77.11-5.05,41.44,18.42,92.31,53.02,115.34.73.49,1.49-.58.91-1.19-15.6-16.21-29.28-32.14-38.87-52.71Z"/>
      <path d="m676.39,695.1c.8-.08.79-1.15,0-1.24-38.19-4.14-70.78-6.42-104.06-27.5-.3-.19-.6.23-.37.48,23.82,25.91,71.32,31.41,104.43,28.25Z"/>
      <path d="m763.94,451.87c-91.53-114.54-278.56-21.88-241.32,119.22,2.18,8.25,5.1,15.91,8.57,23.07,9.64,35.37,33.34,65.72,71.13,78.83,39.08,13.56,94.04,17.07,131.28-4.03.6-.34.2-1.36-.47-1.13-33.26,11.45-73.27,10.47-106.87,1.98-18.75-4.74-33.44-12.75-45.16-23.05,10.11,5.67,20.92,10.02,32.13,12.96.34.13.68.29,1.03.42,54.74,19.96,112.34,8.56,152.38-34.34,47.16-50.54,37.64-123.46-2.69-173.93Zm-216.96,25.46c-.63.71-1.59-.19-1.24-.95,16.35-34.76,59.48-61.41,97.7-61.05,1.09.01,1.28,1.55.25,1.87-19.97,6.25-40.23,10.25-57.84,22.37-15.4,10.59-26.64,23.91-38.88,37.75Zm146.39,174.49c-37.65,9.95-94.19,5.67-120.99-26.12-.39-.46.11-1.24.68-.88,39.2,24.44,75.42,25.07,120.1,25.45.88,0,1.07,1.32.21,1.54Zm55.29-22.24c-.78.53-1.51-.59-.95-1.23,31.91-36.89,37.27-71.98,35.22-119.23-.04-.77,1.12-.9,1.33-.18,11.6,41.13,1.28,95.4-35.59,120.64Z"/>
      <path d="m196.91,479.32c17.55-29.01,43.18-49.23,74.8-61.22,36.67-13.9,70.07-8.23,106.27,2.69.68.2.98-.71.45-1.08-55.71-38.87-157.76-1.86-182.04,59.39-.12.3.36.48.52.21Z"/>
      <path d="m758.78,419.9c-.65-.3-1.43.53-.81,1.06,47.07,40.47,65.58,105.17,47.53,164.58-.3.98,1.14,1.58,1.64.69,27.78-49.01,5.16-141.45-48.36-166.33Z"/>
      <path d="m802.28,595.08c-1.86,3.84-3.68,7.65-5.95,11.27-2.52,4.03-5.85,7.49-8.38,11.52-.27.42.27.97.69.69,7.22-4.78,13.35-14.5,14.66-23.04.09-.58-.72-1.06-1.02-.44Z"/>
      <path d="m561.59,422.64c-.32.45.38.95.75.58,35.62-35.61,79.29-40.62,126.4-29.42.97.23,1.62-1.14.7-1.64-39.61-21.55-101.94-5.62-127.84,30.48Z"/>
      <path d="m696.61,738.62c-65.7-6.43-132.66-4.91-198.59-3.35-53.89,1.28-118.54-1.9-170.09,15.91-1.31.46-1.19,2.63.34,2.54,14.73-.9,29.51-1.6,44.29-2.18-.22,3.08.37,6.45.94,9.25,1.15,5.67,3.21,11.26,5.22,16.69,1.68,4.54,9.2,7.11,11.66,1.52,4.01-9.12,5.33-18.59,7.12-28.31,33.53-1.07,67.09-1.79,100.51-2.87,41.21-1.34,82.6.18,123.9,0-.2,8.83,1.58,18.16,2.97,26.71.63,3.89,6.62,5.42,9.09,2.4,6.77-8.25,8.64-19.04,9.8-29.41,17.64-.39,35.26-1.2,52.83-2.85,3.91-.37,3.89-5.68,0-6.06Z"/>
      <path d="m508.51,408.74c3.99-7.85,6.38-15.52,8.83-24.01,2.6-9.02,5.76-16.88,3.69-26.25-.36-1.67-2.39-1.52-3.23-.42-5.59,7.25-7.05,15.49-9.36,24.22-2.45,9.24-3.85,16.72-2.39,26.14.18,1.16,1.97,1.31,2.46.32Z"/>
      <path d="m456.15,412.55c.62.57,1.97.45,2.11-.56,1.24-8.96-1.85-18.37-3.01-27.23-1.09-8.3-2.39-17.43-7.24-24.44-.9-1.29-3.36-1.4-3.7.48-1.49,8.42.25,16.88,1.52,25.23,1.35,8.86,3.42,20.22,10.32,26.51Z"/>
    </g>
    <g>
      <g>
        <path d="m553.57,257.1c-7.41-43.02,73.98-46.57,76.37-89.82,2.7-48.72-81.62-64.39-79.75-113.14.13-3.38-1.61-3.58,0,0,20.34,45.28,117.03,50.08,114.97,99.71-2.01,48.41-84.23,62-111.59,103.25-.73,1.09,0,0,0,0Z" fill="#fff"/>
        <path d="m404.78,257.1c7.41-43.02-73.98-46.57-76.37-89.82-2.7-48.72,81.62-64.39,79.75-113.14-.13-3.38,1.61-3.58,0,0-20.34,45.28-117.03,50.08-114.97,99.71,2.01,48.41,84.23,62,111.59,103.25.73,1.09,0,0,0,0Z" fill="#fff"/>
      </g>
      <path d="m411.55,277.37c14.71-40.7,39.5-79.24,59.92-117.39,23.01-42.98,44.46-87.14,67.01-130.37,1.56-3,5.43-3.41,4.78.26-5.49,30.66-13.63,57.5-25.18,84.88-5.91,14.02-12.72,28.18-20.52,43.07-11.04,21.06-23.43,43.49-37.19,64.33-14.26,21.61-30,41.51-47.22,56.45-.9.78-2.12.24-1.59-1.22h0Z"/>
    </g>
  </g>
</svg>